<svg xmlns="http://www.w3.org/2000/svg" xmlns:xlink="http://www.w3.org/1999/xlink" version="1.1" x="0px" y="0px" viewBox="0 0 100 125" style="enable-background:new 0 0 100 100;" xml:space="preserve"><g><path d="M96.1416016,12.1420898c-0.421875-1.8725586-2.0996094-3.140625-4.0234375-2.9951172   c-1.9003906,0.1362305-4.2958984,0.3037109-5.6728516,0.3793945c-0.8847656,0.0488281-1.59375,0.7250977-1.6855469,1.6079102   l-0.2568359,2.4384766c-0.013855,0.1292725,0.0378418,0.2453003,0.1141968,0.3450928   c-0.3717651-0.178833-0.6032104-0.4180908-0.687439-0.7366943c-0.2460938-0.9296875,0.65625-2.3422852,1.0244141-2.8081055   c0.1259766-0.1591797,0.1435547-0.378418,0.0439453-0.5551758s-0.2988281-0.2807617-0.4960938-0.2514648   c-1.5292969,0.1870117-14.9833984,1.859375-16.5410156,2.9628906c-1.0050659,0.7121582-8.6764526,2.6873169-13.9458008,3.9307251   c-0.0698853-1.3226318-0.2713623-2.2318726-0.277832-2.2603149c-0.0019531-0.0078125-0.0039063-0.015625-0.0058594-0.0234375   c0.1855469-0.0405273,0.3388672-0.1850586,0.3818359-0.3813477c0.0253906-0.1152344,0.5966797-2.8369141-1.2412109-4.8793945   c-0.0060425-0.0066528-0.0144043-0.0090942-0.0206909-0.0153198c-0.0043945-0.0044556-0.0050049-0.0111694-0.0095825-0.0154419   c-0.1679688-0.1567383-4.1611328-3.824707-8.597168-1.9711914c-1.4248047,0.5957031-2.3808594,1.4833984-2.8408203,2.6381836   c-0.5361328,1.3447266-0.2353516,2.6674805-0.043457,3.2626953l-1.7192383,1.7753906   c-0.1772461,0.1821289-0.1889648,0.46875-0.0273438,0.6650391c0.0981445,0.1196289,0.2412109,0.1826172,0.3867188,0.1826172   c0.0932617,0,0.1875-0.0263672,0.2709961-0.0800781c0.7041016-0.4536133,2.1855469-0.1137695,2.6958008,0.0546875   C42.9780273,15.4155884,42.9891357,15.4108887,43,15.4136353V16c0,0.0976563,0.0352173,0.1835327,0.0835571,0.260498   c-0.4003906,0.1605225-0.7020874,0.2840576-0.8374634,0.3400879c-0.2363281,0.0976563-0.3608398,0.3588867-0.2880859,0.6040039   c0.9042358,3.0471802-1.2392578,6.8651123-1.583313,7.4484253c-0.348877,0.2472534-1.6486816,1.177002-2.7545776,2.0857544   c-0.0976563,0.0800781-0.3945313,0.3237305-5.8833008,7.2983398c-0.4311523,0.5473633-1.1665039,0.71875-1.7885742,0.4155273   c-2.7792969-1.3540039-4.7109375-1.8535156-5.7412109-1.4858398c-0.125,0.0444336-0.2270508,0.1367188-0.2836914,0.2568359   c-0.0571289,0.1196289-0.0639648,0.2573242-0.019043,0.3818359c0.1606445,0.4506836-0.1103516,2.9819336-0.4619141,5.1533203   c-0.0131836,0.0180664-0.0249023,0.0371094-0.034668,0.0571289c-0.2353516,0.4663086-0.0795898,0.6123047,2.3803711,2.2270508   c0.4052734,0.2661133,0.8491211,0.5048828,1.3198242,0.7104492c3.5595703,1.5498047,7.8388672,0.7983398,10.8999023-1.918457   c1.9106445-1.6953125,2.5664063-2.1743164,2.7431641-2.2988281c0.8642578,0.5756836,4.0175781,4.4804688,4.1245117,7.0473633   c0.111084,2.6715698,1.4232788,6.1673584,1.7980347,7.1167603l-8.8068237,14.0761108   c-0.9165039,0.4873047-3.2792969,1.8886719-3.0634766,3.2548828c0.1064453,0.6767578-1.0302734,2.6162109-1.9023438,3.8242188   l-3.8359375,6.7734375C29.0224609,79.7041016,29,79.7890625,29,79.875v1.90625   c-0.8598633,0.7958984-4.9301758,4.5517578-5.9980469,5.3115234c-0.3354492,0.2382813-0.7304688,0.3583984-1.1489258,0.4863281   c-0.8833008,0.2685547-1.9770508,0.6005859-2.0380859,2.2724609l-0.1674805,0.265625   c-0.3632813,0.5673828-0.6772461,1.0566406-0.5463867,1.6152344c0.121582,0.5205078,0.6030273,0.8603516,0.9541016,1.0712891   C21.394043,93.6083984,25.5166016,93,26.3300781,92.8681641l4.25-0.6875   c0.2597656-0.0419922,0.4428711-0.2783203,0.4174805-0.5410156l-0.1191406-1.2509766   c0.3735352-2.4375,1.3520508-5.9248047,2.4111328-6.3232422l0.4072266,0.015625   c1.8935547,0.0869141,3.0019531-0.0087891,3.5209961-2.7949219c1.7324219-1.9892578,3.1728516-2.7041016,3.1875-2.7109375   c0.0751953-0.0371094,0.1411133-0.0917969,0.1899414-0.1601563c0.0532227-0.0751953,5.3618164-7.5351563,7.050293-9.0419922   c0.3779297-0.3378906,0.9594727-0.9453125,1.6953125-1.7138672c2.6669922-2.7861328,7.5849609-7.9257813,11.8242188-9.5341797   c3.2265625,2.5185547,11.1777344,11.9824219,11.9863281,13.1162109c-0.3271484,1.5019531,0.9560547,4.6738281,1.2167969,5.2890625   l1.6328125,4.9902344c0.0322266,1.1201172,0.7148438,2.1074219,1.7578125,2.5302734L78,84.1494141v2.6904297   c-0.3359375,0.4892578-1.3486328,2.1279297-0.9023438,3.5371094C76.7089844,90.75,76.4023438,91.046875,76.5771484,91.7460938   c0.1542969,0.6162109,1.0224609,0.7226563,2.9257813,0.9570313c0.9980469,0.1220703,2.1308594,0.2617188,2.9951172,0.4882813   c0.4658203,0.1220703,0.9179688,0.1708984,1.3427734,0.1708984c1.6201172,0,2.8476563-0.7060547,2.9121094-0.7431641   C86.90625,92.5292969,87,92.3652344,87,92.1875V90c0-0.0898438-0.0244141-0.1777344-0.0693359-0.2548828l-3.4111328-5.7675781   l-0.7841797-2.2998047C83.1826172,81.3857422,83.8125,80.7900391,83.8125,79.75   c0-1.2949219-0.4326172-3.1035156-0.4443359-3.1435547c-0.7919922-4.8369141-1.21875-7.3652344-1.2685547-7.5146484   c-0.0625-0.1875-2.4228516-6.7617188-2.7148438-7.5654297l-3.875-7.75c-0.006897-0.0136719-0.0192261-0.0219116-0.0270996-0.034668   c-0.0102539-0.0167236-0.0151367-0.0355835-0.0275879-0.0512695c-6.3886719-8.0927734-7.5078125-25.7304688-7.5234375-25.9555664   c-0.6748047-4.2915039,3.8632813-8.4633789,6.6503906-10.2514648c3.1660156-2.03125,9.9384766-2.5371094,10.0068359-2.5419922   c0.2314453-0.0166016,0.421875-0.190918,0.4580078-0.4204102c0.0174561-0.1109619-0.0046997-0.2198486-0.0548706-0.3134155   l2.8458862,1.7577515c0.1669922,0.1030273,0.3535156,0.1542969,0.5390625,0.1542969   c0.2158203,0,0.4306641-0.0688477,0.6132813-0.2050781c0.3388672-0.253418,0.4863281-0.6806641,0.375-1.0878906   c-0.0966797-0.3574219-0.1650391-0.6274414-0.2128906-0.831543c0.5498047,0.1655273,1.5507813,0.4755859,3.3681641,1.0546875   c1.0410156,0.3320313,2.1279297,0.2919922,3.0664063-0.1123047c0.2421875-0.1044922,0.9814453-0.4213867,0.9101563-1.0546875   C96.4814453,13.7431641,96.4277344,13.4194336,96.1416016,12.1420898z M42.4892578,14.2573242   c-0.2958984-0.059082-0.6474609-0.1103516-1.0141602-0.1235352l0.8212891-0.8486328   c0.1420898-0.1459961,0.1806641-0.3637695,0.0981445-0.5498047c-0.0058594-0.0141602-0.6157227-1.4228516-0.0620117-2.8134766   c0.3569336-0.8959961,1.1298828-1.5976563,2.2978516-2.0854492c2.8237305-1.1811523,5.5581055,0.328125,6.8129883,1.2163086   c-2.5893555,0.8051758-7.7270508,2.4560547-8.40625,3.0786133C42.4501953,12.6694336,42.4155273,13.5859375,42.4892578,14.2573242z    M43.5401611,14.5081177c-0.1004639-0.5309448-0.1506348-1.3432007,0.1717529-1.6384888   c0.4489136-0.3857422,4.6660767-1.8267212,8.6046753-3.039856c0.9115601,1.1934204,0.9351196,2.6380615,0.8748169,3.3362427   C51.1340332,13.2270508,46.5656128,14.8973389,44,15.8980713V15C44,14.737854,43.7967529,14.529541,43.5401611,14.5081177z    M43.0292969,17.3598633c3.1235352-1.2729492,7.6621094-2.9091797,9.7353516-3.1665039   c-0.0185547,0.0737305-0.0195313,0.152832-0.0019531,0.2319336c0.0195313,0.0820313,1.8291016,8.2597656-3.9677734,10.8686523   c-3.4140625,1.5366211-5.0463867,2.6420898-5.7890625,3.4091797l-1.6918945-3.6738281   C41.8569336,24.0854492,43.7167969,20.5410156,43.0292969,17.3598633z M81.1425781,69.3808594   c0.0673828,0.2822266,0.7783203,4.5722656,1.2460938,7.4238281C82.3935547,76.8222656,82.8125,78.5732422,82.8125,79.75   c0,0.8759766-0.8291016,1.2060547-0.8603516,1.21875c-0.2548828,0.09375-0.3876953,0.3730469-0.3007813,0.6298828l0.9375,2.75   c0.0117188,0.0322266,0.0253906,0.0634766,0.0429688,0.09375L86,90.1367188v1.7431641   c-0.5273438,0.2412109-1.8291016,0.71875-3.2480469,0.3447266c-0.9296875-0.2441406-2.0976563-0.3876953-3.1269531-0.5146484   c-0.7480469-0.0917969-1.7460938-0.2148438-2.0957031-0.3417969c0.0351563-0.0527344,0.15625-0.1689453,0.2636719-0.2724609   l0.2480469-0.2421875c0.1542969-0.1542969,0.1904297-0.3916016,0.0898438-0.5849609   c-0.4921875-0.9443359,0.3876953-2.4619141,0.7685547-2.9667969C78.9638672,87.2148438,79,87.1083984,79,87v-3.1875   c0-0.203125-0.1230469-0.3867188-0.3115234-0.4628906L78.1357422,83.125C77.4453125,82.8447266,77,82.1826172,77,81.4375   c0-0.0527344-0.0087891-0.1054688-0.0244141-0.1552734l-1.6708984-5.1015625   c-0.6542969-1.5556641-1.4453125-4.0761719-1.1533203-4.8076172c0.0419922-0.1025391,0.046875-0.2167969,0.0166016-0.3232422   c-0.2216797-0.7773438-9.5078125-11.6142578-12.6230469-13.890625c-0.1328125-0.0976563-0.3066406-0.1220703-0.4589844-0.0693359   c-4.5214844,1.5751953-9.6904297,6.9755859-12.4672852,9.8779297c-0.7211914,0.7529297-1.2905273,1.3476563-1.6391602,1.6591797   c-1.6826172,1.5029297-6.4648438,8.1777344-7.1298828,9.1103516c-0.4160156,0.2265625-1.8339844,1.0800781-3.4790039,3   c-0.0585938,0.0683594-0.0976563,0.1513672-0.1132813,0.2392578c-0.3823242,2.1982422-0.8798828,2.1767578-2.5170898,2.1054688   L33.2387695,83.0625c-0.0498047,0-0.0957031,0.0039063-0.1425781,0.0166016   c-2.1132813,0.5556641-3.0493164,6.1132813-3.2158203,7.2216797c-0.0058594,0.0400391-0.0068359,0.0810547-0.0029297,0.1220703   l0.0805664,0.8457031l-3.7871094,0.6123047c-1.7421875,0.28125-4.8032227,0.5429688-5.6010742,0.0654297   c-0.4228516-0.2539063-0.4858398-0.4023438-0.4951172-0.4423828c-0.034668-0.1464844,0.1938477-0.5019531,0.4145508-0.8466797   c0.0791016-0.1240234,0.1635742-0.2548828,0.25-0.3964844C20.7871094,90.1826172,20.8125,90.0917969,20.8125,90   c0-1.0595703,0.4448242-1.1953125,1.331543-1.4648438c0.4545898-0.1376953,0.9697266-0.2949219,1.4379883-0.6279297   c1.2421875-0.8837891,6.0541992-5.3515625,6.2583008-5.5410156C29.9423828,82.2714844,30,82.1386719,30,82v-1.9931641   l3.7407227-6.6113281C34.1196289,72.8730469,36,70.2001953,35.7905273,68.875   c-0.0771484-0.4882813,1.3388672-1.5908203,2.6582031-2.2744141c0.0795898-0.0419922,0.1464844-0.1035156,0.1938477-0.1787109   l8.9193115-14.2554321c5.0913086-1.8727417,18.6158447-2.7357788,27.1247559,2.1998291l3.7801514,7.5526733   C79.3710938,64.4365234,81.0947266,69.2421875,81.1425781,69.3808594z M82.9628906,13.4350586   c0.0498047,0.1914063,0.1386719,0.4121094,0.2919922,0.6318359c-2.1865234,0.2514648-6.6689453,0.9428711-9.2119141,2.574707   c-3.7158203,2.3837891-7.8046875,6.7597656-7.1044922,11.2006836c0.0410156,0.6889648,1.0117188,15.9755859,6.5371094,24.7670898   c-8.1201172-3.7416992-20.1572266-3.487793-25.9560547-1.4951172c-0.4370117-1.1435547-1.5483398-4.2558594-1.6450195-6.5727539   c-0.1176758-2.8208008-3.1831055-6.6591797-4.3286133-7.6425781c-0.3588867-0.3081055-0.6044922-0.4238281-0.8505859-0.3959961   c-0.2236328,0.0249023-0.5014648,0.0551758-3.3515625,2.5839844c-2.7705078,2.4594727-6.6323242,3.1445313-9.8359375,1.75   c-0.4189453-0.1831055-0.8129883-0.3950195-1.1708984-0.6298828c-1.1499023-0.7548828-1.6704102-1.1264648-1.9047852-1.3051758   c0.184082-1.1357422,0.5737305-3.7456055,0.5039063-5.0561523c0.9003906-0.027832,2.5410156,0.515625,4.574707,1.5063477   c1.0473633,0.5107422,2.2875977,0.2241211,3.012207-0.6967773c3.921875-4.9833984,5.5371094-6.9619141,5.7319336-7.144043   c0.8092041-0.6650391,1.7399902-1.3518677,2.2941284-1.7526245l1.9343872,4.2003784   C42.5668945,30.1401367,42.746582,30.25,42.9375,30.25c0.0478516,0,0.0966797-0.0068359,0.1450195-0.0214844   c0.2045898-0.0620117,0.3432617-0.2451172,0.3544922-0.4511719c0.0566406-0.1450195,0.6445313-1.265625,5.7680664-3.5712891   c3.9929199-1.7969971,4.8043823-5.8262939,4.8287354-8.7230225c2.4331055-0.5730591,13.0650024-3.1171265,14.505249-4.1373291   c0.9560547-0.6772461,9.2949219-1.9277344,15.0097656-2.652832C83.1347656,11.4350586,82.7138672,12.4916992,82.9628906,13.4350586   z M95.1923828,14.0185547c-0.7177734,0.3095703-1.5576172,0.3364258-2.3681641,0.078125   C88.7900391,12.8125,88.6738281,12.8125,88.5625,12.8125c-0.1552734,0-0.3164063,0.0795898-0.4111328,0.2036133   c-0.1708984,0.2231445-0.2060547,0.3862305,0.2119141,2.0986328l-2.8330078-1.75l0.2236328-2.1259766   c0.0410156-0.3920898,0.3544922-0.6923828,0.7460938-0.7143555c1.3808594-0.0756836,3.7841797-0.2431641,5.6904297-0.3803711   c1.4101563-0.0981445,2.6630859,0.8310547,2.9746094,2.2172852c0.1972656,0.8798828,0.2832031,1.3041992,0.3183594,1.5048828   C95.4335938,13.9008789,95.34375,13.9536133,95.1923828,14.0185547z"/><path d="M22.8925781,41.8720703c0.0854492-0.1083984,0.1225586-0.2475586,0.1020508-0.3837891l-0.4511719-2.9959717   c0.2214355-0.0198364,0.4116821-0.1808472,0.449707-0.4102783l0.625-3.75   c0.0087891-0.0522461,0.0092773-0.1054688,0.0009766-0.1582031l-0.25-1.625   c-0.0283203-0.184082-0.1567383-0.3369141-0.3330078-0.3969727l-1.375-0.46875   c-0.0483398-0.0169067-0.0974121-0.0181274-0.1461792-0.0196533l-0.0828247-0.5501709   c-0.0141602-0.0942383-0.0551758-0.1826172-0.1176758-0.2543945l-2.0415039-2.3417969l-0.972168-4.3754883   c-0.0166016-0.074707-0.050293-0.1445313-0.0976563-0.2041016c-1.3203125-1.6499023-10.4775391-2.3710938-12.2998047-2.4985352   C5.7392578,21.4296875,5.5805664,21.4970703,5.4775391,21.625C5.375,21.753418,5.3422852,21.9238281,5.3891602,22.0810547   l0.6396484,2.1298828C5.6953125,24.956543,4.6186523,27.7099609,6.25,29.015625   c0.1411133,0.1118164,0.331543,0.1396484,0.4985352,0.0732422c0.1674805-0.0668945,0.2856445-0.2192383,0.3095703-0.3979492   c0.3432617-2.5722656,6.1010742-3.2050781,8.7739258-3.2509766c0.2973633,1.6870117,0.5585938,3.5419922,0.5,3.859375   c-0.3828125,1.3330078-0.5698242,2.7324219-0.5776367,2.7915039c-0.0068359,0.0517578-0.0053711,0.1044922,0.0039063,0.15625   l0.1700439,0.9213257l-0.6202393,0.0723267c-0.4306641,0.050293-0.8071289,0.3100586-1.0063477,0.6958008   c-0.1992188,0.3847656-0.1938477,0.8422852,0.0136719,1.222168l1.1611328,2.128418   c0.2001953,0.3666992,0.5512695,0.6181641,0.9633789,0.6899414c0.0791016,0.0136719,0.1577148,0.0205078,0.2363281,0.0205078   c0.0477905,0,0.0917969-0.0205078,0.138916-0.0254517l0.8181152,4.4312134   c0.0292969,0.1577148,0.1318359,0.2915039,0.2763672,0.3603516c0.7216797,0.3447266,1.3930664,0.480957,1.9975586,0.480957   C21.3642578,43.2446289,22.4350586,42.4526367,22.8925781,41.8720703z M22.4267578,33.0004883l0.1918945,1.246582   l-0.3753662,2.2522583l-0.5654297-3.7542725L22.4267578,33.0004883z M6.4296875,27.5009766   c-0.2963867-1.2045898,0.5693359-3.0053711,0.5800781-3.027832c0.0566406-0.1137695,0.0683594-0.2451172,0.0317383-0.3666992   l-0.4853516-1.6157227c3.7850342,0.3021851,8.7304077,0.9718628,10.3734741,1.744873L16.1828003,24.4375   C15.0844727,24.4337769,8.1577148,24.534668,6.4296875,27.5009766z M16.6113281,36.9916992   c-0.0644531-0.0112305-0.1835938-0.050293-0.2568359-0.1835938l-1.1611328-2.128418   c-0.0698242-0.1274414-0.0258789-0.2412109-0.003418-0.2841797c0.0219727-0.0429688,0.0893555-0.1445313,0.234375-0.1616211   l2.1518555-0.2509766l0.5424805,1.8535156l-1.2036133,1.0688477   C16.8007813,37.0068359,16.6767578,37.0019531,16.6113281,36.9916992z M18.5688477,41.9628906l-0.822937-4.4577026   l1.2736206-1.1311646c0.1445313-0.128418,0.2021484-0.3291016,0.1479492-0.5146484l-0.75-2.5625   c-0.0688477-0.234375-0.3041992-0.3857422-0.5380859-0.355957l-0.9555054,0.1113892l-0.1675415-0.9072876   c0.0439453-0.3061523,0.2241211-1.4804688,0.5366211-2.5693359c0.1516113-0.5266113-0.1968384-2.7359619-0.4700928-4.2749023   l0.6704712-0.1812744l0.8308716,3.7388916c0.0180664,0.081543,0.0566406,0.1572266,0.1113281,0.2202148l2.0292969,2.3276367   l1.5053711,9.9970703C21.5834961,41.7900391,20.4003906,42.7207031,18.5688477,41.9628906z"/></g><text x="0" y="115" fill="#000000" font-size="5px" font-weight="bold" font-family="'Helvetica Neue', Helvetica, Arial-Unicode, Arial, Sans-serif">Created by Evgeni Moryakov</text><text x="0" y="120" fill="#000000" font-size="5px" font-weight="bold" font-family="'Helvetica Neue', Helvetica, Arial-Unicode, Arial, Sans-serif">from the Noun Project</text></svg>